<svg xmlns="http://www.w3.org/2000/svg" width="190.02" height="190.02" viewBox="0 0 190.02 190.02">
  <g id="Group_4828" data-name="Group 4828" transform="translate(-1200 -149.98)">
    <g id="Livello_1-2" transform="translate(1200 149.98)">
      <path id="Path_3662" data-name="Path 3662" d="M170.48,20.42C155.96,5.92,134.1,0,95.01,0S34.76,5.73,20.09,20.45C3.41,37.16,0,62.35,0,95.01c0,38.94,5.64,59.74,20.14,74.21,14.63,14.58,37.01,20.8,74.87,20.8,32.8,0,58.19-3.54,75.47-20.83,16.43-16.42,19.54-38.74,19.54-74.18s-3.26-58.33-19.54-74.59Z" fill="#CAE8EE"/>
    </g>
    <g id="Livello_1-2-2" data-name="Livello_1-2" transform="translate(1197.994 149.968)">
      <path id="Subtraction_5" data-name="Subtraction 5" d="M7313.466,2863.413l-.116,0c-4.644-.046-8.732-.173-12.5-.391l-1.012-.059-.351-.021-.043,0c-1.708-.1-3.474-.2-5.214-.327-2.776-.2-5.321-.435-7.78-.71-3.112-.348-6.782-.81-10.41-1.59a37.525,37.525,0,0,1-12.569-5.17,23.478,23.478,0,0,1-8.491-8.93c-2.011-3.9-2.439-8.26-1.31-13.319a19.315,19.315,0,0,1,2.459-6.083,18.507,18.507,0,0,1,3.972-4.509,20.432,20.432,0,0,1,10.309-4.389,15.621,15.621,0,0,1,2-.123,21.564,21.564,0,0,1,3.366.284l.06.069c.011-.01.035-.034.033-.039a.53.53,0,0,0-.058-.066h0l0,0a15.994,15.994,0,0,1-1.121-4.2,25.1,25.1,0,0,1,1.792-12.071,24.528,24.528,0,0,1,6.951-9.912,23.019,23.019,0,0,1,11.108-4.857c.271-.046.547-.07.815-.093a5.461,5.461,0,0,0,1.475-.266h.669a.425.425,0,0,0,.351.14c.043,0,.088,0,.132-.006H7298c.042,0,.084-.006.126-.006.934,0,1.9,0,2.858.011a21.42,21.42,0,0,1,7.46,1.89,28.547,28.547,0,0,1,6.579,3.979,23.518,23.518,0,0,1,5.071,5.771,12.219,12.219,0,0,1,1.72,4.62,17.4,17.4,0,0,1,4.167-4.038,15.557,15.557,0,0,1,5.263-2.261,16.152,16.152,0,0,1,3.547-.406,15.026,15.026,0,0,1,7.512,2.047,15.475,15.475,0,0,1,7.131,8.559,15.931,15.931,0,0,1,.908,5.551,17.546,17.546,0,0,1-1.08,5.619,29.529,29.529,0,0,1,3.6-.921,25.306,25.306,0,0,1,4.274-.377,20.7,20.7,0,0,1,7.762,1.47,22.674,22.674,0,0,1,6.882,4.437,23.516,23.516,0,0,1,4.654,5.818,19.842,19.842,0,0,1,2.327,7.062c1.008,7.588-1.532,13.759-7.549,18.341v.009a35.013,35.013,0,0,1-12.792,5.8,104.828,104.828,0,0,1-15.53,2.589c-6.512.656-13.349,1.019-20.32,1.081-.16,0-.311,0-.468-.011h-8.141c-.084,0-.172,0-.244.007S7313.553,2863.413,7313.466,2863.413Z" transform="translate(-7219 -2730)" fill="#059abe"/>
    </g>
  </g>
</svg>
