<svg xmlns="http://www.w3.org/2000/svg" width="132.318" height="80.69" viewBox="0 0 132.318 80.69">
  <path id="Subtraction_5" data-name="Subtraction 5" d="M97.05,140.2h0c-5.033-.047-9.209-.177-13.14-.41l-1.878-.11-.034,0c-1.652-.1-3.361-.195-5.038-.318-2.963-.217-5.638-.459-8.18-.74A110.117,110.117,0,0,1,57.84,136.95a39.495,39.495,0,0,1-13.21-5.431,24.684,24.684,0,0,1-8.92-9.39c-2.114-4.1-2.566-8.679-1.381-14a20.318,20.318,0,0,1,2.588-6.393A19.456,19.456,0,0,1,41.092,97,21.5,21.5,0,0,1,51.92,92.39a16.627,16.627,0,0,1,2.092-.129,23.071,23.071,0,0,1,3.548.3l.069.08.041-.04c-.01-.015-.02-.027-.03-.04s-.021-.026-.03-.04a16.22,16.22,0,0,1-1.17-4.42,26.456,26.456,0,0,1,1.88-12.68A25.74,25.74,0,0,1,65.624,65,24.232,24.232,0,0,1,77.3,59.89c.271-.044.55-.068.82-.09a5.588,5.588,0,0,0,1.58-.289h.709a.456.456,0,0,0,.378.152c.046,0,.093,0,.138-.006s.09-.006.134-.006c.5,0,1.008,0,1.5,0s1,0,1.5,0a22.43,22.43,0,0,1,7.84,1.99,29.866,29.866,0,0,1,6.911,4.176A24.621,24.621,0,0,1,104.14,71.9a12.8,12.8,0,0,1,1.81,4.85,18.372,18.372,0,0,1,4.382-4.247,16.26,16.26,0,0,1,5.528-2.373,16.854,16.854,0,0,1,3.726-.43,15.722,15.722,0,0,1,7.894,2.16,16.213,16.213,0,0,1,7.491,9,16.809,16.809,0,0,1,.953,5.837,18.41,18.41,0,0,1-1.133,5.9,29.038,29.038,0,0,1,3.78-.96,26.715,26.715,0,0,1,4.5-.4,21.754,21.754,0,0,1,8.155,1.543,23.749,23.749,0,0,1,7.228,4.664,24.722,24.722,0,0,1,4.887,6.114,22.061,22.061,0,0,1,1.268,18.2,20.5,20.5,0,0,1-6.755,8.5v-.02a36.852,36.852,0,0,1-13.44,6.09,106.829,106.829,0,0,1-16.321,2.72c-6.889.7-14.072,1.079-21.35,1.13-.162,0-.33,0-.5-.01H97.69c-.1,0-.2,0-.312.01S97.162,140.2,97.05,140.2Z" transform="translate(-33.687 -59.51)" fill="#fff"/>
</svg>
